<svg xmlns="http://www.w3.org/2000/svg" xmlns:xlink="http://www.w3.org/1999/xlink" aria-hidden="true" focusable="false" width="1em" height="1em" preserveAspectRatio="xMidYMid meet" viewBox="0 0 24 24" class="iconify" data-icon="bx:lock-alt" style="vertical-align: -0.125em; transform: rotate(360deg);"><path fill="#1B7F9C" d="M12 2C9.243 2 7 4.243 7 7v3H6c-1.103 0-2 .897-2 2v8c0 1.103.897 2 2 2h12c1.103 0 2-.897 2-2v-8c0-1.103-.897-2-2-2h-1V7c0-2.757-2.243-5-5-5zm6 10l.002 8H6v-8h12zm-9-2V7c0-1.654 1.346-3 3-3s3 1.346 3 3v3H9z"></path></svg>