<svg width="704" height="169" viewBox="0 0 704 169" fill="none" xmlns="http://www.w3.org/2000/svg">
<path d="M143.8 25.12C127.93 9.25002 106.84 0.52002 84.3999 0.52002C61.9599 0.52002 40.8699 9.26002 24.9999 25.12C9.1299 40.99 0.399902 62.08 0.399902 84.52C0.399902 106.96 9.1399 128.05 24.9999 143.92C40.8599 159.79 61.9599 168.52 84.3999 168.52C106.84 168.52 127.93 159.78 143.8 143.92C159.67 128.06 168.4 106.96 168.4 84.52C168.4 62.08 159.66 40.99 143.8 25.12ZM156.06 84.52C156.06 88.98 155.65 93.35 154.86 97.59H87.3399C86.9899 97.59 86.6499 97.58 86.3199 97.55C85.1099 97.46 83.9399 97.2 82.8499 96.79C77.8599 94.95 74.2799 90.14 74.2799 84.52C74.2799 77.31 80.1399 71.45 87.3499 71.45H154.87C155.65 75.69 156.06 80.06 156.06 84.52ZM142.57 126.32H95.9599L93.2899 138.17H131.85C119.2 149.37 102.58 156.18 84.3999 156.18C44.8899 156.18 12.7399 124.03 12.7399 84.52C12.7399 45.01 44.8899 12.86 84.3999 12.86C102.58 12.86 119.2 19.66 131.85 30.86H118.25L115.45 42.71H142.57C146.29 47.87 149.34 53.54 151.59 59.6H87.3399C73.5999 59.6 62.4199 70.78 62.4199 84.52C62.4199 95.76 69.8999 105.28 80.1399 108.38C81.2699 108.72 82.4199 108.99 83.6099 109.16C84.8299 109.34 86.0699 109.44 87.3399 109.44H151.59C149.34 115.49 146.29 121.16 142.57 126.32Z" fill="#20809D"/>
<path d="M41.4398 84.5199C41.4398 62.3799 58.6999 44.0699 80.7598 42.7899L95.4198 42.7499L97.9899 31.7299L98.1798 30.9399H80.5698L80.2598 30.9499C51.8398 32.5099 29.5898 56.0399 29.5898 84.5299C29.5898 97.2099 34.0998 109.52 42.2898 119.19C50.2898 128.63 61.3298 135.05 73.4298 137.29L75.2498 129.47L76.1298 125.69C56.1498 122.15 41.4398 104.84 41.4398 84.5199Z" fill="#20809D"/>
<path d="M221.06 45.02L235.93 89.75C238.14 97.07 240.34 104.39 242.44 111.71C243.95 106.37 245.58 100.9 247.2 95.56L263.81 45.02H280.07L252.07 127.04H231.85L203.5 45.02H221.06V45.02Z" fill="#343434"/>
<path d="M340.03 102.06H298.55C299.36 105.43 300.06 107.05 300.99 108.45C303.08 111.82 307.73 116.23 317.02 116.23C324.11 116.23 329.68 113.67 332.01 112.51C333.29 111.81 334.57 111 335.96 110.19L336.19 123.78C332.7 125.06 324.69 128.31 314.46 128.31C310.86 128.31 300.17 128.19 292.04 120.41C288.09 116.58 283.21 109.72 283.21 97.1701C283.21 94.1501 283.44 85.5501 288.32 77.6501C291.34 72.8901 298.43 64.8701 312.72 64.8701C315.16 64.8701 321.9 64.9901 328.06 68.9401C338.86 75.7901 339.91 89.1501 340.14 92.5201C340.26 95.6701 340.14 98.8101 340.03 102.06ZM298.55 91.0201L325.62 90.9001C325.5 88.8101 325.39 87.3001 324.69 85.3201C323.06 79.6301 318.42 76.0301 312.49 76.0301C310.05 76.0301 307.61 76.6101 305.64 77.8901C299.37 81.6101 298.78 89.2801 298.55 91.0201Z" fill="#343434"/>
<path d="M386.49 65.8101V80.5601C385.1 80.2101 384.17 79.7501 381.38 79.7501C378.82 79.7501 372.32 80.3301 368.72 87.1901C366.51 91.3701 366.16 96.2501 366.28 105.78V127.04H350.48V81.9601C350.36 76.7301 350.36 71.3901 350.13 66.1601H365V80.6801C365.7 78.0101 366.16 76.8501 366.74 75.5701C371.04 66.8601 378.59 65.3501 382.19 65.3501C383.24 65.3501 384.4 65.4701 386.49 65.8101Z" fill="#343434"/>
<path d="M394.86 40.3701H410.66V55.0101H394.86V40.3701ZM394.86 66.1601H410.66V127.04H394.86V66.1601Z" fill="#343434"/>
<path d="M484.66 46.9902L483.38 61.0502C482.22 60.4702 481.06 59.8902 479.9 59.4202C473.97 57.2102 468.28 57.1002 466.19 57.1002C463.87 57.1002 458.06 57.2202 452.25 60.3502C439.93 66.9702 439.35 80.9102 439.35 84.7502C439.35 86.6102 439.47 91.6002 441.33 96.7202C445.51 108.11 454.92 114.49 467.01 114.38C470.84 114.38 476.65 113.57 480.25 112.52C482.11 111.94 483.04 111.59 484.66 110.78L485.59 125.42C477.92 127.4 473.97 128.21 466.07 128.21C463.75 128.21 457.12 128.21 450.5 126.35C437.72 122.98 427.85 114.04 423.66 101.49C422.73 98.5902 421.45 93.5902 421.45 86.2702C421.45 68.8402 428.54 59.2002 434 54.2002C439 49.6702 448.29 43.7402 464.32 43.7402C474.21 43.7402 480.83 45.8302 484.66 46.9902Z" fill="#343434"/>
<path d="M532.87 43.28C541.12 43.28 546.58 45.02 549.72 46.3C565.99 53.04 572.84 68.95 572.84 85.68C572.84 90.33 572.37 105.08 562.15 116.58C551.58 128.31 537.06 128.66 532.06 128.66C527.53 128.66 514.87 128.43 504.76 118.67C499.3 113.56 492.68 103.68 492.68 86.26C492.68 81.96 492.91 66.05 503.37 54.78C504.76 53.15 507.55 50.48 512.2 48.04C520.91 43.39 529.5 43.28 532.87 43.28ZM532.99 55.82C529.62 55.82 526.25 56.63 523.35 58.14C517.08 61.63 509.99 69.99 510.11 86.25C510.11 89.04 509.99 104.26 520.45 112.04C525.56 115.87 530.56 116.11 533 116.11C536.6 116.11 543.11 115.41 548.57 108.33C551.59 104.5 555.42 97.06 555.42 85.44C555.42 83.58 555.42 78.93 553.91 73.71C552.74 69.76 547.98 55.82 532.99 55.82Z" fill="#343434"/>
<path d="M633.71 96.37L646.26 127.04H627.9L620 106.48C619.3 104.74 618.49 102.88 617.79 101.14C616.16 97.65 614.19 94.29 610.24 93.36C608.26 92.89 605.36 92.89 601.06 92.89V127.05H584.45V45.02H609.78C620.24 45.14 633.02 45.48 638.59 56.52C640.68 60.82 640.8 65 640.8 66.74C640.8 67.79 640.8 70.46 639.87 73.36C637.55 80.45 632.32 83.47 629.76 84.51C627.2 85.44 625.46 85.67 622.91 85.9C624.3 86.13 625.35 86.25 626.51 86.71C630.23 88.47 632.2 93 633.71 96.37ZM600.83 57.8L600.95 79.99C604.09 80.11 607.34 80.22 610.48 80.11C611.41 79.99 614.31 79.99 616.99 78.83C622.8 76.27 623.73 70.58 623.61 68.37C623.61 64.88 622.22 61.75 619.43 59.89C616.29 57.8 613.04 57.68 609.44 57.68C606.64 57.68 603.74 57.68 600.83 57.8Z" fill="#343434"/>
<path d="M654.39 45.02H703.07V58.84H671.24V78.36H700.4V91.84H671.24V113.22H703.42V127.04H654.39V45.02V45.02Z" fill="#343434"/>
</svg>
